# xmcd
#
# Track frame offsets: 
#        150
#        86967
#        131032
#        184812
#        239698
#        284678
#        300470
#
# Disc length: 4393 seconds
#
# Revision: 2
# Processed by: cddbd v1.5.2PL0 Copyright (c) Steve Scherf et al.
# Submitted via: ExactAudioCopy v1.3
#
DISCID=69112707
DTITLE=Royal Concertgebouw Orchestra - RCO 125 anniversary edition - Th
DTITLE=e Radio Legacy, CD 120 [Riccardo Chailly, chief conductor 1988-
DTITLE=2004]
DYEAR=2013
DGENRE=Classical
TTITLE0=Wolfgang Rihm: Ballet Tutuguri (1982-1983) - Schwarzer und rot
TTITLE0=er Tanz
TTITLE1=Béla Bartók: Concierto para violín No. 1 (1907-1908 - pub. 1959
TTITLE1=), op. posth. Sz 36 BB 48a - I. Andante sostenuto
TTITLE2=Béla Bartók: Concierto para violín No. 1 (1907-1908 - pub. 1959
TTITLE2=), op. posth. Sz 36 BB 48a - II. Allegro giocoso
TTITLE3=Ludwig van Beethoven: Sinfonía No. 2 en Re Mayor (1801-1802), 
TTITLE3=op. 36 - I. Adagio - Allegro con brio
TTITLE4=Ludwig van Beethoven: Sinfonía No. 2 en Re Mayor (1801-1802), 
TTITLE4=op. 36 - II. Larghetto
TTITLE5=Ludwig van Beethoven: Sinfonía No. 2 en Re Mayor (1801-1802), 
TTITLE5=op. 36 - III. Scherzo. Allegro
TTITLE6=Ludwig van Beethoven: Sinfonía No. 2 en Re Mayor (1801-1802), 
TTITLE6=op. 36 - IV. Allegro molto
EXTD=
EXTT0=
EXTT1=
EXTT2=
EXTT3=
EXTT4=
EXTT5=
EXTT6=
PLAYORDER=
